<?xml version="1.0" encoding="UTF-8"?>
<svg version="1.1" xmlns="http://www.w3.org/2000/svg" width="260" height="210">
<path d="M0 0 C0.66 0.33 1.32 0.66 2 1 C4.88067737 1.23286913 7.74012519 1.4194594 10.625 1.5625 C13.38875 1.706875 16.1525 1.85125 19 2 C19.495 10.415 19.495 10.415 20 19 C22.041875 19.5259375 22.041875 19.5259375 24.125 20.0625 C30.29112476 22.1114013 33.25968004 25.91488734 36.375 31.4375 C37.93978485 37.85311787 37.37706028 42.54251499 34.203125 48.2421875 C31.36653782 52.38655188 27.6931932 54.51408109 23 56 C20.10427801 56.16585708 17.31009798 56.23341501 14.41796875 56.1953125 C13.60378983 56.1924826 12.7896109 56.18965271 11.95075989 56.18673706 C9.362854 56.17558584 6.77530042 56.15049083 4.1875 56.125 C2.42773939 56.11496365 0.66797333 56.10583894 -1.09179688 56.09765625 C-5.39466598 56.0756631 -9.69727336 56.04116836 -14 56 C-14.09434326 54.8047168 -14.18868652 53.60943359 -14.28588867 52.37792969 C-14.4330354 50.80914627 -14.58128639 49.24046615 -14.73046875 47.671875 C-14.81935364 46.49020752 -14.81935364 46.49020752 -14.91003418 45.28466797 C-15.275736 40.63782024 -15.275736 40.63782024 -18.08349609 37.12353516 C-20.31775313 36.19957609 -20.31775313 36.19957609 -22.74609375 35.6015625 C-27.2045547 34.41160932 -29.38469303 30.93356919 -31.8125 27.25 C-33.71374776 22.04658509 -34.12801009 17.58502313 -31.875 12.421875 C-30.65724868 10.22161978 -29.38773705 8.09647419 -28 6 C-27.34 6 -26.68 6 -26 6 C-26 5.34 -26 4.68 -26 4 C-20.3166478 1.08975799 -15.95179174 0.63915525 -9.625 0.875 C-6.74725633 0.95204196 -3.87945259 0.99406298 -1 1 C-0.67 0.67 -0.34 0.34 0 0 Z " fill="#4294D0" transform="translate(66,74)"/>
<path d="M0 0 C0.66 0.33 1.32 0.66 2 1 C4.88067737 1.23286913 7.74012519 1.4194594 10.625 1.5625 C13.38875 1.706875 16.1525 1.85125 19 2 C19.495 10.91 19.495 10.91 20 20 C8.78 20 -2.44 20 -14 20 C-14 25.94 -14 31.88 -14 38 C-16 39 -16 39 -17.98828125 38.3984375 C-24.11546425 35.70041742 -28.06224301 32.94004509 -31.8125 27.25 C-33.71374776 22.04658509 -34.12801009 17.58502313 -31.875 12.421875 C-30.65724868 10.22161978 -29.38773705 8.09647419 -28 6 C-27.34 6 -26.68 6 -26 6 C-26 5.34 -26 4.68 -26 4 C-20.3166478 1.08975799 -15.95179174 0.63915525 -9.625 0.875 C-6.74725633 0.95204196 -3.87945259 0.99406298 -1 1 C-0.67 0.67 -0.34 0.34 0 0 Z " fill="#CDB271" transform="translate(66,74)"/>
<path d="M0 0 C-0.50712033 3.71888239 -1.11608215 6.73454239 -3 10 C-3.639375 9.835 -4.27875 9.67 -4.9375 9.5 C-8.97586652 8.84067485 -12.91807258 8.91996221 -17 9 C-17 9.66 -17 10.32 -17 11 C-15.66195312 11.67095703 -15.66195312 11.67095703 -14.296875 12.35546875 C-13.12640625 12.96003906 -11.9559375 13.56460938 -10.75 14.1875 C-9.58984375 14.77917969 -8.4296875 15.37085937 -7.234375 15.98046875 C-3.91486912 18.05315539 -2.06287499 19.69237318 0 23 C0.87952851 27.43226967 0.4985794 31.65090279 -1.0625 35.875 C-4.98403334 40.17603657 -7.81921752 41.80736818 -13.58203125 42.31640625 C-19.84214648 42.40855711 -25.10817843 42.26957688 -31 40 C-31 36.04 -31 32.08 -31 28 C-29.494375 28.495 -27.98875 28.99 -26.4375 29.5 C-22.07176821 30.82276084 -18.53322132 31.29564487 -14 31 C-14 29.68 -14 28.36 -14 27 C-15.35544922 26.32904297 -15.35544922 26.32904297 -16.73828125 25.64453125 C-17.93005363 25.03456901 -19.12143984 24.42385182 -20.3125 23.8125 C-22.07013672 22.92498047 -22.07013672 22.92498047 -23.86328125 22.01953125 C-27.15967638 19.89719466 -28.44676458 18.55494021 -30 15 C-30.8820165 10.43099563 -30.38591434 6.83357497 -28.4375 2.625 C-20.61922495 -5.79468083 -9.71947117 -3.94413323 0 0 Z " fill="#313131" transform="translate(221,83)"/>
<path d="M0 0 C4.62 0 9.24 0 14 0 C15.98 4.29 17.96 8.58 20 13 C22.31954564 9.90727248 23.71720383 7.69759103 25.1875 4.25 C25.785625 2.8475 26.38375 1.445 27 0 C31.62 0 36.24 0 41 0 C40.67 1.65 40.34 3.3 40 5 C39.34 5 38.68 5 38 5 C37.731875 5.86625 37.46375 6.7325 37.1875 7.625 C36.0278991 10.92070781 34.58785974 13.8933179 33 17 C32.505 18.485 32.505 18.485 32 20 C31.34 20 30.68 20 30 20 C27.94277412 25.16815281 27.58486681 29.8922296 27.375 35.375 C27.33632812 36.20644531 27.29765625 37.03789063 27.2578125 37.89453125 C27.16425754 39.92935156 27.08107287 41.96464416 27 44 C22.71 44 18.42 44 14 44 C14.07863281 42.906875 14.15726563 41.81375 14.23828125 40.6875 C14.6791688 25.84699726 8.79181148 15.45379891 1.17749023 3.01513672 C0 1 0 1 0 0 Z " fill="#303130" transform="translate(126,81)"/>
<path d="M0 0 C10.56 0 21.12 0 32 0 C32 5.61 32 11.22 32 17 C21.44 17 10.88 17 0 17 C0 11.39 0 5.78 0 0 Z " fill="#042549" transform="translate(52,94)"/>
<path d="M0 0 C22.77 0 45.54 0 69 0 C69 0.66 69 1.32 69 2 C65.06771486 3.90996707 63.19024759 3.88741429 59 3 C57.00736596 2.88903354 55.01185468 2.82458883 53.01635742 2.79467773 C51.83551071 2.77473251 50.654664 2.75478729 49.43803406 2.73423767 C47.54091423 2.70916893 47.54091423 2.70916893 45.60546875 2.68359375 C43.65173088 2.6524221 43.65173088 2.6524221 41.65852356 2.62062073 C38.20790737 2.56561816 34.75723365 2.51611341 31.30651855 2.46777344 C27.78046594 2.41739836 24.25449613 2.36179613 20.72851562 2.30664062 C13.81908229 2.19932622 6.90957405 2.09782275 0 2 C0 1.34 0 0.68 0 0 Z " fill="#2F2B2C" transform="translate(148,138)"/>
<path d="M0 0 C22.44 0 44.88 0 68 0 C68 0.66 68 1.32 68 2 C45.35161116 3.66720869 22.67277673 2.64821358 0 2 C0 1.34 0 0.68 0 0 Z " fill="#171D20" transform="translate(38,138)"/>
<path d="M0 0 C0.66 0.33 1.32 0.66 2 1 C4.88067737 1.23286913 7.74012519 1.4194594 10.625 1.5625 C13.38875 1.706875 16.1525 1.85125 19 2 C19.495 10.91 19.495 10.91 20 20 C9.11 20 -1.78 20 -13 20 C-13 19.67 -13 19.34 -13 19 C-3.1 19 6.8 19 17 19 C17 18.01 17 17.02 17 16 C16.01 16 15.02 16 14 16 C14 15.34 14 14.68 14 14 C14.99 14 15.98 14 17 14 C17 10.7 17 7.4 17 4 C13.70827931 3.97311662 10.41677646 3.9532179 7.125 3.9375 C6.18785156 3.92912109 5.25070313 3.92074219 4.28515625 3.91210938 C3.38925781 3.90888672 2.49335937 3.90566406 1.5703125 3.90234375 C0.74289551 3.89710693 -0.08452148 3.89187012 -0.93701172 3.88647461 C-3.06411757 3.86647862 -3.06411757 3.86647862 -5 5 C-5 4.34 -5 3.68 -5 3 C-7.97 3 -10.94 3 -14 3 C-14 2.34 -14 1.68 -14 1 C-13.07316406 1.01160156 -12.14632812 1.02320312 -11.19140625 1.03515625 C-9.39509766 1.04869141 -9.39509766 1.04869141 -7.5625 1.0625 C-5.77005859 1.07990234 -5.77005859 1.07990234 -3.94140625 1.09765625 C-1.11126659 1.33901792 -1.11126659 1.33901792 0 0 Z " fill="#C5B688" transform="translate(66,74)"/>
<path d="M0 0 C3 0 6 0 9 0 C10.7634375 -0.0309375 10.7634375 -0.0309375 12.5625 -0.0625 C16 0 16 0 17 1 C17.04080783 2.99958364 17.04254356 5.00045254 17 7 C14.625 7.625 14.625 7.625 12 8 C11.34 7.34 10.68 6.68 10 6 C9.01 6.66 8.02 7.32 7 8 C6.7525 7.030625 6.505 6.06125 6.25 5.0625 C5.63125 3.5465625 5.63125 3.5465625 5 2 C2.96756452 1.03122943 2.96756452 1.03122943 1 1 C1 1.66 1 2.32 1 3 C1.99 3.33 2.98 3.66 4 4 C3.01 4 2.02 4 1 4 C1 4.66 1 5.32 1 6 C2.32 6 3.64 6 5 6 C5 6.66 5 7.32 5 8 C3.35 8 1.7 8 0 8 C0 5.36 0 2.72 0 0 Z M13 1 C12.67 2.32 12.34 3.64 12 5 C12.99 5.33 13.98 5.66 15 6 C15 4.35 15 2.7 15 1 C14.34 1 13.68 1 13 1 Z " fill="#191A19" transform="translate(115,135)"/>
<path d="M0 0 C0.33 1.32 0.66 2.64 1 4 C5.66308199 4.02468646 10.32612608 4.04285349 14.98925781 4.05493164 C16.57617861 4.05996588 18.16309477 4.06679369 19.75 4.07543945 C22.02865749 4.08754482 24.30725376 4.09323733 26.5859375 4.09765625 C27.29744965 4.10281754 28.00896179 4.10797882 28.74203491 4.11329651 C32.49593556 4.17314758 32.49593556 4.17314758 36 3 C37.99960012 2.960008 40.00047242 2.95653201 42 3 C39.13179507 5.86820493 37.29967216 5.99089648 33.26293945 6.11352539 C31.71304437 6.11336731 30.16314359 6.10773287 28.61328125 6.09765625 C27.79627243 6.0962413 26.97926361 6.09482635 26.13749695 6.09336853 C23.52912732 6.08777294 20.92084366 6.07522129 18.3125 6.0625 C16.54362103 6.05748443 14.77474072 6.05292162 13.00585938 6.04882812 C8.67053981 6.03780496 4.33528448 6.02054338 0 6 C0 4.02 0 2.04 0 0 Z " fill="#5491BC" transform="translate(52,124)"/>
<path d="M0 0 C7.92 0 15.84 0 24 0 C24 0.66 24 1.32 24 2 C16.41 2.33 8.82 2.66 1 3 C0.67 2.01 0.34 1.02 0 0 Z " fill="#373A3C" transform="translate(82,138)"/>
<path d="M0 0 C2.49335663 3.74003494 2.63175396 6.67017406 2 11 C0.38551857 15.67700291 -1.58333252 19.47619001 -6 22 C-6 20.68 -6 19.36 -6 18 C-5.195625 17.360625 -4.39125 16.72125 -3.5625 16.0625 C0.42018178 11.30270958 -0.09707678 6.02758533 0 0 Z " fill="#528EBC" transform="translate(101,105)"/>
<path d="M0 0 C5.62170399 0.22945731 8.39632556 1.65060682 12.6171875 5.33203125 C14.17329906 7.20903587 14.59708512 8.61866973 15 11 C14.34 10.67 13.68 10.34 13 10 C13 9.34 13 8.68 13 8 C11.35 7.67 9.7 7.34 8 7 C7.67 6.01 7.34 5.02 7 4 C6.01 4.495 6.01 4.495 5 5 C4.34 4.67 3.68 4.34 3 4 C3 3.01 3 2.02 3 1 C2.01 0.67 1.02 0.34 0 0 Z " fill="#4D8FBE" transform="translate(86,94)"/>
<path d="M0 0 C1.65 0 3.3 0 5 0 C5.98120464 3.05263664 5.98120464 4.94736336 5 8 C3.35 8 1.7 8 0 8 C0 5.36 0 2.72 0 0 Z M2 1 C2 1.66 2 2.32 2 3 C2.66 2.67 3.32 2.34 4 2 C3.34 1.67 2.68 1.34 2 1 Z M2 4 C2 4.66 2 5.32 2 6 C2.66 6 3.32 6 4 6 C4 5.34 4 4.68 4 4 C3.34 4 2.68 4 2 4 Z " fill="#282A29" transform="translate(108,135)"/>
<path d="M0 0 C2 0 4 0 6 0 C6 2.64 6 5.28 6 8 C5.34 8 4.68 8 4 8 C3.67 7.34 3.34 6.68 3 6 C2.67 6.66 2.34 7.32 2 8 C1.34 8 0.68 8 0 8 C0 5.36 0 2.72 0 0 Z " fill="#1A1A1A" transform="translate(133,135)"/>
<path d="M0 0 C1.66611905 -0.042721 3.33382885 -0.04063832 5 0 C6 1 6 1 6.125 4 C6 7 6 7 5 8 C3.33382885 8.04063832 1.66611905 8.042721 0 8 C0 5.36 0 2.72 0 0 Z M2 1 C2 2.65 2 4.3 2 6 C2.66 6 3.32 6 4 6 C4.33 5.01 4.66 4.02 5 3 C4.01 2.34 3.02 1.68 2 1 Z " fill="#1A1A1A" transform="translate(140,135)"/>
<path d="M0 0 C0.33 0 0.66 0 1 0 C1 5.61 1 11.22 1 17 C0.34 17.33 -0.32 17.66 -1 18 C-3.1640625 17.22265625 -3.1640625 17.22265625 -5.625 16.0625 C-6.44226562 15.68222656 -7.25953125 15.30195312 -8.1015625 14.91015625 C-8.72804687 14.60980469 -9.35453125 14.30945313 -10 14 C-5.77213125 12.37389663 -4.96360209 13.34546597 0 15 C0 10.05 0 5.1 0 0 Z " fill="#BFB38B" transform="translate(51,95)"/>
<path d="M0 0 C4.62 0 9.24 0 14 0 C14 0.66 14 1.32 14 2 C10.18105324 3.854917 8.0792614 4.15056091 4 3 C2.8553125 2.7215625 2.8553125 2.7215625 1.6875 2.4375 C0.8521875 2.2209375 0.8521875 2.2209375 0 2 C0 1.34 0 0.68 0 0 Z " fill="#282627" transform="translate(203,138)"/>
<path d="M0 0 C1.98 0.495 1.98 0.495 4 1 C4 4.96 4 8.92 4 13 C2.35 13 0.7 13 -1 13 C-1 12.34 -1 11.68 -1 11 C-0.01 11 0.98 11 2 11 C2 7.7 2 4.4 2 1 C1.34 0.67 0.68 0.34 0 0 Z " fill="#CAB380" transform="translate(81,77)"/>
<path d="M0 0 C1.98 0.66 3.96 1.32 6 2 C5.34 2.66 4.68 3.32 4 4 C3.01 4 2.02 4 1 4 C1.33 6.64 1.66 9.28 2 12 C1.34 12 0.68 12 0 12 C0 8.04 0 4.08 0 0 Z " fill="#272928" transform="translate(190,111)"/>
<path d="M0 0 C0.33 0.66 0.66 1.32 1 2 C1.66 2.33 2.32 2.66 3 3 C1.68 3.33 0.36 3.66 -1 4 C-1 5.65 -1 7.3 -1 9 C-1.99 9.495 -1.99 9.495 -3 10 C-2.25 3.375 -2.25 3.375 0 0 Z " fill="#C3B378" transform="translate(37,82)"/>
<path d="M0 0 C2 1 2 1 2 1 Z " fill="#000000" transform="translate(208,136)"/>
<path d="" fill="#FFFFFF" transform="translate(0,0)"/>
<path d="" fill="#FFFFFF" transform="translate(0,0)"/>
<path d="" fill="#FFFFFF" transform="translate(0,0)"/>
<path d="" fill="#FFFFFF" transform="translate(0,0)"/>
<path d="" fill="#FFFFFF" transform="translate(0,0)"/>
<path d="" fill="#FFFFFF" transform="translate(0,0)"/>
<path d="" fill="#FFFFFF" transform="translate(0,0)"/>
<path d="" fill="#FFFFFF" transform="translate(0,0)"/>
<path d="" fill="#FFFFFF" transform="translate(0,0)"/>
<path d="" fill="#FFFFFF" transform="translate(0,0)"/>
<path d="" fill="#FFFFFF" transform="translate(0,0)"/>
<path d="" fill="#FFFFFF" transform="translate(0,0)"/>
<path d="" fill="#FFFFFF" transform="translate(0,0)"/>
<path d="" fill="#FFFFFF" transform="translate(0,0)"/>
<path d="" fill="#FFFFFF" transform="translate(0,0)"/>
<path d="" fill="#FFFFFF" transform="translate(0,0)"/>
<path d="" fill="#FFFFFF" transform="translate(0,0)"/>
<path d="" fill="#FFFFFF" transform="translate(0,0)"/>
<path d="" fill="#FFFFFF" transform="translate(0,0)"/>
<path d="" fill="#FFFFFF" transform="translate(0,0)"/>
<path d="" fill="#FFFFFF" transform="translate(0,0)"/>
<path d="" fill="#FFFFFF" transform="translate(0,0)"/>
<path d="" fill="#FFFFFF" transform="translate(0,0)"/>
<path d="" fill="#FFFFFF" transform="translate(0,0)"/>
<path d="" fill="#FFFFFF" transform="translate(0,0)"/>
<path d="" fill="#FFFFFF" transform="translate(0,0)"/>
<path d="" fill="#FFFFFF" transform="translate(0,0)"/>
<path d="" fill="#FFFFFF" transform="translate(0,0)"/>
<path d="" fill="#FFFFFF" transform="translate(0,0)"/>
<path d="" fill="#FFFFFF" transform="translate(0,0)"/>
<path d="" fill="#FFFFFF" transform="translate(0,0)"/>
<path d="" fill="#FFFFFF" transform="translate(0,0)"/>
<path d="" fill="#FFFFFF" transform="translate(0,0)"/>
<path d="" fill="#FFFFFF" transform="translate(0,0)"/>
<path d="" fill="#FFFFFF" transform="translate(0,0)"/>
<path d="" fill="#FFFFFF" transform="translate(0,0)"/>
<path d="" fill="#FFFFFF" transform="translate(0,0)"/>
<path d="" fill="#FFFFFF" transform="translate(0,0)"/>
<path d="" fill="#FFFFFF" transform="translate(0,0)"/>
<path d="" fill="#FFFFFF" transform="translate(0,0)"/>
<path d="" fill="#FFFFFF" transform="translate(0,0)"/>
<path d="" fill="#FFFFFF" transform="translate(0,0)"/>
<path d="" fill="#FFFFFF" transform="translate(0,0)"/>
<path d="" fill="#FFFFFF" transform="translate(0,0)"/>
<path d="" fill="#FFFFFF" transform="translate(0,0)"/>
<path d="" fill="#FFFFFF" transform="translate(0,0)"/>
<path d="" fill="#FFFFFF" transform="translate(0,0)"/>
<path d="" fill="#FFFFFF" transform="translate(0,0)"/>
<path d="" fill="#FFFFFF" transform="translate(0,0)"/>
<path d="" fill="#FFFFFF" transform="translate(0,0)"/>
<path d="" fill="#FFFFFF" transform="translate(0,0)"/>
<path d="" fill="#FFFFFF" transform="translate(0,0)"/>
<path d="" fill="#FFFFFF" transform="translate(0,0)"/>
<path d="" fill="#FFFFFF" transform="translate(0,0)"/>
<path d="" fill="#FFFFFF" transform="translate(0,0)"/>
<path d="" fill="#FFFFFF" transform="translate(0,0)"/>
<path d="" fill="#FFFFFF" transform="translate(0,0)"/>
<path d="" fill="#FFFFFF" transform="translate(0,0)"/>
<path d="" fill="#FFFFFF" transform="translate(0,0)"/>
<path d="" fill="#FFFFFF" transform="translate(0,0)"/>
<path d="" fill="#FFFFFF" transform="translate(0,0)"/>
<path d="" fill="#FFFFFF" transform="translate(0,0)"/>
<path d="" fill="#FFFFFF" transform="translate(0,0)"/>
<path d="" fill="#FFFFFF" transform="translate(0,0)"/>
<path d="" fill="#FFFFFF" transform="translate(0,0)"/>
<path d="" fill="#FFFFFF" transform="translate(0,0)"/>
<path d="" fill="#FFFFFF" transform="translate(0,0)"/>
<path d="" fill="#FFFFFF" transform="translate(0,0)"/>
<path d="" fill="#FFFFFF" transform="translate(0,0)"/>
<path d="" fill="#FFFFFF" transform="translate(0,0)"/>
<path d="" fill="#FFFFFF" transform="translate(0,0)"/>
<path d="" fill="#FFFFFF" transform="translate(0,0)"/>
<path d="" fill="#FFFFFF" transform="translate(0,0)"/>
<path d="" fill="#FFFFFF" transform="translate(0,0)"/>
<path d="" fill="#FFFFFF" transform="translate(0,0)"/>
<path d="" fill="#FFFFFF" transform="translate(0,0)"/>
<path d="" fill="#FFFFFF" transform="translate(0,0)"/>
<path d="" fill="#FFFFFF" transform="translate(0,0)"/>
<path d="" fill="#FFFFFF" transform="translate(0,0)"/>
<path d="" fill="#FFFFFF" transform="translate(0,0)"/>
<path d="" fill="#FFFFFF" transform="translate(0,0)"/>
<path d="" fill="#FFFFFF" transform="translate(0,0)"/>
</svg>
